<svg xmlns="http://www.w3.org/2000/svg" width="1440" height="800" viewBox="0 0 1440 800" preserveAspectRatio="none">
  <defs>
    <linearGradient id="grad1" x1="0%" y1="0%" x2="100%" y2="100%">
      <stop offset="0%" style="stop-color:#5e72e4;stop-opacity:0.8" />
      <stop offset="100%" style="stop-color:#11cdef;stop-opacity:0.8" />
    </linearGradient>
  </defs>
  <rect width="1440" height="800" fill="url(#grad1)" />
  <path fill="#ffffff" fill-opacity="0.05" d="M0,96L48,112C96,128,192,160,288,186.7C384,213,480,235,576,213.3C672,192,768,128,864,128C960,128,1056,192,1152,213.3C1248,235,1344,213,1392,202.7L1440,192L1440,320L1392,320C1344,320,1248,320,1152,320C1056,320,960,320,864,320C768,320,672,320,576,320C480,320,384,320,288,320C192,320,96,320,48,320L0,320Z"></path>
</svg>