<svg xmlns="http://www.w3.org/2000/svg" width="1200" height="600" viewBox="0 0 1200 600">
  <!-- Background gradient -->
  <defs>
    <linearGradient id="seo-gradient" x1="0%" y1="0%" x2="100%" y2="100%">
      <stop offset="0%" style="stop-color:#2d3748;stop-opacity:0.9" />
      <stop offset="100%" style="stop-color:#5e72e4;stop-opacity:0.9" />
    </linearGradient>
  </defs>
  <rect width="1200" height="600" fill="url(#seo-gradient)" />
  
  <!-- Grid pattern -->
  <pattern id="grid" width="50" height="50" patternUnits="userSpaceOnUse">
    <rect width="50" height="50" fill="none" stroke="#ffffff" stroke-width="0.5" opacity="0.1" />
  </pattern>
  <rect width="1200" height="600" fill="url(#grid)" />
  
  <!-- Analytics elements -->
  <g opacity="0.7" fill="#ffffff">
    <!-- Bar charts -->
    <rect x="100" y="300" width="30" height="200" fill="#ffffff" opacity="0.2" />
    <rect x="150" y="350" width="30" height="150" fill="#ffffff" opacity="0.3" />
    <rect x="200" y="250" width="30" height="250" fill="#ffffff" opacity="0.4" />
    <rect x="250" y="400" width="30" height="100" fill="#ffffff" opacity="0.2" />
    <rect x="300" y="200" width="30" height="300" fill="#ffffff" opacity="0.3" />
    
    <!-- Line graph -->
    <polyline points="400,400 450,300 500,350 550,200 600,250 650,150 700,300" 
              fill="none" stroke="#ffffff" stroke-width="4" opacity="0.6" />
    
    <!-- Pie chart -->
    <circle cx="900" cy="300" r="100" fill="none" stroke="#ffffff" stroke-width="2" />
    <path d="M900,300 L900,200 A100,100 0 0,1 985,350 Z" fill="#ffffff" opacity="0.3" />
    <path d="M900,300 L985,350 A100,100 0 0,1 815,350 Z" fill="#ffffff" opacity="0.4" />
    <path d="M900,300 L815,350 A100,100 0 0,1 900,200 Z" fill="#ffffff" opacity="0.2" />
  </g>
  
  <!-- SEO elements -->
  <g fill="#ffffff" opacity="0.6">
    <!-- Search bar -->
    <rect x="400" y="100" width="400" height="40" rx="20" fill="none" stroke="#ffffff" stroke-width="2" />
    <circle cx="760" cy="120" r="15" fill="none" stroke="#ffffff" stroke-width="2" />
    <line x1="770" y1="130" x2="785" y2="145" stroke="#ffffff" stroke-width="2" />
    
    <!-- Keywords -->
    <rect x="100" y="100" width="80" height="30" rx="15" fill="#ffffff" opacity="0.2" />
    <text x="140" y="120" font-family="Arial" font-size="12" fill="#ffffff" text-anchor="middle">SEO</text>
    
    <rect x="200" y="100" width="120" height="30" rx="15" fill="#ffffff" opacity="0.2" />
    <text x="260" y="120" font-family="Arial" font-size="12" fill="#ffffff" text-anchor="middle">Keywords</text>
    
    <rect x="100" y="150" width="100" height="30" rx="15" fill="#ffffff" opacity="0.2" />
    <text x="150" y="170" font-family="Arial" font-size="12" fill="#ffffff" text-anchor="middle">Analytics</text>
    
    <rect x="220" y="150" width="140" height="30" rx="15" fill="#ffffff" opacity="0.2" />
    <text x="290" y="170" font-family="Arial" font-size="12" fill="#ffffff" text-anchor="middle">Optimization</text>
    
    <!-- Rankings -->
    <text x="900" y="100" font-family="Arial" font-size="20" fill="#ffffff" opacity="0.8" text-anchor="middle">RANKINGS</text>
    <line x1="800" y1="120" x2="1000" y2="120" stroke="#ffffff" stroke-width="1" opacity="0.5" />
    
    <text x="830" y="150" font-family="Arial" font-size="14" fill="#ffffff" opacity="0.6" text-anchor="start">#1</text>
    <line x1="850" y1="150" x2="970" y2="150" stroke="#ffffff" stroke-width="1" opacity="0.3" />
    
    <text x="830" y="180" font-family="Arial" font-size="14" fill="#ffffff" opacity="0.6" text-anchor="start">#2</text>
    <line x1="850" y1="180" x2="940" y2="180" stroke="#ffffff" stroke-width="1" opacity="0.3" />
    
    <text x="830" y="210" font-family="Arial" font-size="14" fill="#ffffff" opacity="0.6" text-anchor="start">#3</text>
    <line x1="850" y1="210" x2="910" y2="210" stroke="#ffffff" stroke-width="1" opacity="0.3" />
  </g>
</svg>